<?xml version="1.0" encoding="iso-8859-1"?>
<!-- Generator: Adobe Illustrator 17.1.0, SVG Export Plug-In . SVG Version: 6.00 Build 0)  -->
<!DOCTYPE svg PUBLIC "-//W3C//DTD SVG 1.1//EN" "http://www.w3.org/Graphics/SVG/1.1/DTD/svg11.dtd">
<svg version="1.1" id="Capa_1" xmlns="http://www.w3.org/2000/svg" xmlns:xlink="http://www.w3.org/1999/xlink" x="0px" y="0px"
	 viewBox="0 0 194.799 194.799" style="enable-background:new 0 0 194.799 194.799;" xml:space="preserve">
<path d="M13.865,187.225c-4.012,0-7.836-1.734-10.491-4.758c-4.829-5.497-4.43-13.984,0.908-19.322L138.327,29.101
	c0.938-0.938,2.598-0.938,3.535,0l20.617,20.617c1.91-1.983,4.885-5.164,6.287-7.149c0.423-0.598,0.706-1.306,0.843-2.102
	c0.23-1.35-0.07-2.631-0.846-3.607l-15.528-19.533c-0.792-0.997-0.709-2.429,0.193-3.327l4.332-4.313
	c0.086-0.086,0.179-0.166,0.277-0.239c0.26-0.192,2.652-1.874,6.738-1.874c5.188,0,10.628,2.605,16.167,7.745
	c8.909,8.266,13.698,16.422,13.852,23.586c0.09,4.179-1.442,7.984-4.43,11.005c-6.303,6.372-17.573,17.589-20.074,20.077
	c-0.72,2.701-2.085,5.205-3.975,7.282c-4.545,4.996-9.839,9.438-15.766,13.232l1.6,1.6c0.469,0.469,0.732,1.104,0.732,1.768
	s-0.264,1.299-0.732,1.768l-13.987,13.987c-0.977,0.977-2.559,0.977-3.535,0l-2.752-2.752l-40.112,40.111
	c-1.42,1.42-3.309,2.203-5.317,2.203c-2.008,0-3.896-0.782-5.316-2.203l-2.186-2.185c-1.421-1.42-2.203-3.309-2.203-5.318
	c0-2.008,0.782-3.897,2.203-5.317l33.94-33.941c-2.356-0.037-4.388-0.164-5.943-0.297l-83.218,83.218
	C21.091,185.775,17.59,187.225,13.865,187.225z M140.095,34.404L7.818,166.68c-3.479,3.48-3.781,8.965-0.688,12.487
	c1.707,1.943,4.162,3.058,6.735,3.058c2.389,0,4.634-0.93,6.323-2.619l84.049-84.049c0.531-0.531,1.271-0.793,2.021-0.72
	c1.762,0.18,4.582,0.395,8.013,0.395c1.21,0,2.426-0.027,3.627-0.08l0.783-0.783l-2.78-2.78c-0.977-0.976-0.977-2.559,0-3.535
	l0.34-0.34c0.002-0.002,0.004-0.005,0.007-0.007l13.987-13.987c0.977-0.977,2.559-0.977,3.535,0l13.155,13.155
	c5.93-3.68,11.205-8.039,15.692-12.971c1.411-1.551,2.412-3.434,2.906-5.46c0.01-0.084,0.024-0.169,0.043-0.253
	c0.936-4.22-0.312-8.574-3.335-11.647l1.703-1.833l-1.777,1.758L140.095,34.404z M122.591,97.586L82.48,137.698
	c-0.477,0.477-0.738,1.109-0.738,1.782c0,0.673,0.262,1.306,0.738,1.782l2.186,2.185c0.953,0.954,2.61,0.952,3.563,0l40.111-40.111
	L122.591,97.586z M121.551,89.475l14.845,14.844l10.452-10.451l-14.845-14.844L121.551,89.475z M166.013,53.26
	c2.487,2.622,4.074,5.867,4.641,9.31c4.581-4.564,11.704-11.674,16.157-16.176c2.042-2.064,3.047-4.547,2.986-7.381
	c-0.122-5.697-4.475-12.81-12.254-20.029c-5.711-5.298-10.095-6.41-12.767-6.41c-2.03,0-3.289,0.62-3.677,0.843l-2.56,2.549
	l14.138,17.783c1.673,2.104,2.333,4.79,1.859,7.561c-0.262,1.538-0.83,2.933-1.687,4.146
	C171.239,47.735,168.02,51.178,166.013,53.26z"/>
<g>
</g>
<g>
</g>
<g>
</g>
<g>
</g>
<g>
</g>
<g>
</g>
<g>
</g>
<g>
</g>
<g>
</g>
<g>
</g>
<g>
</g>
<g>
</g>
<g>
</g>
<g>
</g>
<g>
</g>
</svg>
